<mxfile host="app.diagrams.net" modified="2023-02-16T11:34:35.032Z" agent="5.0 (Windows NT 10.0; Win64; x64) AppleWebKit/537.36 (KHTML, like Gecko) Chrome/110.0.0.0 Safari/537.36 Edg/110.0.1587.41" etag="PIb3cQHqUxKGyrszBJww" version="20.8.20" type="github">
  <diagram id="C5RBs43oDa-KdzZeNtuy" name="Page-1">
    <mxGraphModel dx="1434" dy="796" grid="1" gridSize="10" guides="1" tooltips="1" connect="1" arrows="1" fold="1" page="1" pageScale="1" pageWidth="827" pageHeight="1169" math="0" shadow="0">
      <root>
        <mxCell id="WIyWlLk6GJQsqaUBKTNV-0" />
        <mxCell id="WIyWlLk6GJQsqaUBKTNV-1" parent="WIyWlLk6GJQsqaUBKTNV-0" />
        <mxCell id="l7YEyWOv4hOUlDNcojhh-3" value="" style="edgeStyle=orthogonalEdgeStyle;rounded=0;orthogonalLoop=1;jettySize=auto;html=1;" edge="1" parent="WIyWlLk6GJQsqaUBKTNV-1" source="l7YEyWOv4hOUlDNcojhh-0" target="l7YEyWOv4hOUlDNcojhh-2">
          <mxGeometry relative="1" as="geometry" />
        </mxCell>
        <mxCell id="l7YEyWOv4hOUlDNcojhh-0" value="START" style="ellipse;whiteSpace=wrap;html=1;" vertex="1" parent="WIyWlLk6GJQsqaUBKTNV-1">
          <mxGeometry x="360" y="80" width="120" height="80" as="geometry" />
        </mxCell>
        <mxCell id="l7YEyWOv4hOUlDNcojhh-1" value="KONIEC" style="ellipse;whiteSpace=wrap;html=1;" vertex="1" parent="WIyWlLk6GJQsqaUBKTNV-1">
          <mxGeometry x="360" y="630" width="120" height="80" as="geometry" />
        </mxCell>
        <mxCell id="l7YEyWOv4hOUlDNcojhh-5" value="" style="edgeStyle=orthogonalEdgeStyle;rounded=0;orthogonalLoop=1;jettySize=auto;html=1;" edge="1" parent="WIyWlLk6GJQsqaUBKTNV-1" source="l7YEyWOv4hOUlDNcojhh-2" target="l7YEyWOv4hOUlDNcojhh-4">
          <mxGeometry relative="1" as="geometry" />
        </mxCell>
        <mxCell id="l7YEyWOv4hOUlDNcojhh-2" value="podaj a&lt;br&gt;podaj szukaną b&lt;br&gt;i = 0" style="rounded=0;whiteSpace=wrap;html=1;" vertex="1" parent="WIyWlLk6GJQsqaUBKTNV-1">
          <mxGeometry x="360" y="200" width="120" height="60" as="geometry" />
        </mxCell>
        <mxCell id="l7YEyWOv4hOUlDNcojhh-7" value="" style="edgeStyle=orthogonalEdgeStyle;rounded=0;orthogonalLoop=1;jettySize=auto;html=1;" edge="1" parent="WIyWlLk6GJQsqaUBKTNV-1" source="l7YEyWOv4hOUlDNcojhh-4" target="l7YEyWOv4hOUlDNcojhh-6">
          <mxGeometry relative="1" as="geometry" />
        </mxCell>
        <mxCell id="l7YEyWOv4hOUlDNcojhh-14" value="" style="edgeStyle=orthogonalEdgeStyle;rounded=0;orthogonalLoop=1;jettySize=auto;html=1;" edge="1" parent="WIyWlLk6GJQsqaUBKTNV-1" source="l7YEyWOv4hOUlDNcojhh-4" target="l7YEyWOv4hOUlDNcojhh-9">
          <mxGeometry relative="1" as="geometry" />
        </mxCell>
        <mxCell id="l7YEyWOv4hOUlDNcojhh-4" value="i&amp;lt;a.długość" style="rhombus;whiteSpace=wrap;html=1;" vertex="1" parent="WIyWlLk6GJQsqaUBKTNV-1">
          <mxGeometry x="380" y="410" width="80" height="80" as="geometry" />
        </mxCell>
        <mxCell id="l7YEyWOv4hOUlDNcojhh-8" value="" style="edgeStyle=orthogonalEdgeStyle;rounded=0;orthogonalLoop=1;jettySize=auto;html=1;" edge="1" parent="WIyWlLk6GJQsqaUBKTNV-1" source="l7YEyWOv4hOUlDNcojhh-6" target="l7YEyWOv4hOUlDNcojhh-1">
          <mxGeometry relative="1" as="geometry" />
        </mxCell>
        <mxCell id="l7YEyWOv4hOUlDNcojhh-6" value="wypisz b" style="rounded=0;whiteSpace=wrap;html=1;" vertex="1" parent="WIyWlLk6GJQsqaUBKTNV-1">
          <mxGeometry x="360" y="530" width="120" height="60" as="geometry" />
        </mxCell>
        <mxCell id="l7YEyWOv4hOUlDNcojhh-16" value="" style="edgeStyle=orthogonalEdgeStyle;rounded=0;orthogonalLoop=1;jettySize=auto;html=1;" edge="1" parent="WIyWlLk6GJQsqaUBKTNV-1" source="l7YEyWOv4hOUlDNcojhh-9" target="l7YEyWOv4hOUlDNcojhh-11">
          <mxGeometry relative="1" as="geometry" />
        </mxCell>
        <mxCell id="l7YEyWOv4hOUlDNcojhh-9" value="a[i] = b" style="rhombus;whiteSpace=wrap;html=1;" vertex="1" parent="WIyWlLk6GJQsqaUBKTNV-1">
          <mxGeometry x="520" y="410" width="80" height="80" as="geometry" />
        </mxCell>
        <mxCell id="l7YEyWOv4hOUlDNcojhh-11" value="i = i+1" style="rounded=0;whiteSpace=wrap;html=1;" vertex="1" parent="WIyWlLk6GJQsqaUBKTNV-1">
          <mxGeometry x="500" y="290" width="120" height="60" as="geometry" />
        </mxCell>
        <mxCell id="l7YEyWOv4hOUlDNcojhh-12" value="TAK" style="text;html=1;strokeColor=none;fillColor=none;align=center;verticalAlign=middle;whiteSpace=wrap;rounded=0;" vertex="1" parent="WIyWlLk6GJQsqaUBKTNV-1">
          <mxGeometry x="450" y="420" width="60" height="30" as="geometry" />
        </mxCell>
        <mxCell id="l7YEyWOv4hOUlDNcojhh-15" value="NIE" style="text;html=1;strokeColor=none;fillColor=none;align=center;verticalAlign=middle;whiteSpace=wrap;rounded=0;" vertex="1" parent="WIyWlLk6GJQsqaUBKTNV-1">
          <mxGeometry x="360" y="490" width="60" height="30" as="geometry" />
        </mxCell>
        <mxCell id="l7YEyWOv4hOUlDNcojhh-17" value="" style="endArrow=classic;html=1;rounded=0;exitX=0;exitY=0.5;exitDx=0;exitDy=0;" edge="1" parent="WIyWlLk6GJQsqaUBKTNV-1" source="l7YEyWOv4hOUlDNcojhh-11">
          <mxGeometry width="50" height="50" relative="1" as="geometry">
            <mxPoint x="540" y="470" as="sourcePoint" />
            <mxPoint x="420" y="320" as="targetPoint" />
          </mxGeometry>
        </mxCell>
        <mxCell id="l7YEyWOv4hOUlDNcojhh-18" value="NIE" style="text;html=1;strokeColor=none;fillColor=none;align=center;verticalAlign=middle;whiteSpace=wrap;rounded=0;" vertex="1" parent="WIyWlLk6GJQsqaUBKTNV-1">
          <mxGeometry x="550" y="370" width="60" height="30" as="geometry" />
        </mxCell>
        <mxCell id="l7YEyWOv4hOUlDNcojhh-20" value="" style="endArrow=classic;html=1;rounded=0;exitX=0.5;exitY=1;exitDx=0;exitDy=0;entryX=1;entryY=0.5;entryDx=0;entryDy=0;" edge="1" parent="WIyWlLk6GJQsqaUBKTNV-1" source="l7YEyWOv4hOUlDNcojhh-9" target="l7YEyWOv4hOUlDNcojhh-6">
          <mxGeometry width="50" height="50" relative="1" as="geometry">
            <mxPoint x="540" y="470" as="sourcePoint" />
            <mxPoint x="590" y="420" as="targetPoint" />
            <Array as="points">
              <mxPoint x="560" y="560" />
            </Array>
          </mxGeometry>
        </mxCell>
        <mxCell id="l7YEyWOv4hOUlDNcojhh-21" value="TAK" style="text;html=1;strokeColor=none;fillColor=none;align=center;verticalAlign=middle;whiteSpace=wrap;rounded=0;" vertex="1" parent="WIyWlLk6GJQsqaUBKTNV-1">
          <mxGeometry x="550" y="510" width="60" height="30" as="geometry" />
        </mxCell>
      </root>
    </mxGraphModel>
  </diagram>
</mxfile>
